<?xml version="1.0" encoding="UTF-8" standalone="no"?>
<!DOCTYPE svg PUBLIC "-//W3C//DTD SVG 1.1//EN" "http://www.w3.org/Graphics/SVG/1.1/DTD/svg11.dtd">
<svg width="100%" height="100%" viewBox="0 0 4961 3508" version="1.1" xmlns="http://www.w3.org/2000/svg" xmlns:xlink="http://www.w3.org/1999/xlink" xml:space="preserve" xmlns:serif="http://www.serif.com/" style="fill-rule:evenodd;clip-rule:evenodd;stroke-linejoin:round;stroke-miterlimit:2;">
    <defs>
        <linearGradient id="logoGradient" gradientUnits="userSpaceOnUse" x1="1900" y1="540" x2="2300" y2="1520">
            <stop offset="0%" stop-color="#b580ff"/>
            <stop offset="50%" stop-color="#d367f5"/>
            <stop offset="100%" stop-color="#ff6bb3"/>
        </linearGradient>
    </defs>
 
    <g transform="matrix(2.792046,-0.159962,0.159962,2.792046,-3371.126225,-946.724007)">
        <path class="letter-wave letter-wave-j" d="M1698.307,581.621L1794.069,581.621C1803.086,581.621 1809.578,584.958 1813.546,591.63C1817.513,598.303 1818.415,606.148 1816.251,615.165L1626.35,1359.62C1618.775,1388.114 1607.594,1414.714 1592.806,1439.421C1578.018,1464.128 1562.509,1484.417 1546.278,1500.287C1530.047,1516.157 1512.463,1530.494 1493.527,1543.299C1474.592,1556.103 1458.18,1565.661 1444.294,1571.973C1430.408,1578.285 1417.333,1583.245 1405.069,1586.851C1388.117,1591.54 1376.575,1588.474 1370.444,1577.654L1340.687,1515.977C1331.67,1497.221 1334.555,1484.958 1349.344,1479.187C1378.198,1468.006 1404.799,1450.152 1429.145,1425.625C1453.491,1401.098 1470.173,1372.063 1479.19,1338.52L1666.386,605.968C1670.714,589.737 1681.354,581.621 1698.307,581.621Z" fill="url(#logoGradient)" fill-rule="nonzero"/>
        <path class="letter-wave letter-wave-i" d="M2271.796,605.968C2276.124,589.737 2287.125,581.621 2304.799,581.621L2398.938,581.621C2407.955,581.621 2414.447,585.048 2418.415,591.901C2422.382,598.754 2423.284,606.869 2421.12,616.247L2353.491,882.974L2514.078,881.997L2584.953,604.991C2589.281,588.76 2600.282,580.645 2617.955,580.645L2712.094,580.645C2721.111,580.645 2727.604,584.071 2731.571,590.924C2735.539,597.777 2736.44,605.893 2734.276,615.271L2544.917,1358.643C2540.588,1374.874 2529.407,1382.989 2511.373,1382.989L2417.234,1382.989C2408.217,1382.989 2401.724,1379.653 2397.757,1372.98C2393.789,1366.308 2392.888,1358.282 2395.052,1348.904L2480.534,1014.008L2319.407,1014.985L2231.76,1359.62C2227.432,1375.851 2216.431,1383.966 2198.757,1383.966L2104.619,1383.966C2095.601,1383.966 2089.109,1380.63 2085.142,1373.957C2081.174,1367.284 2080.272,1359.259 2082.436,1349.881L2271.796,605.968Z" fill="url(#logoGradient)" fill-rule="nonzero"/>
        <path class="letter-wave letter-wave-h" d="M1961.787,605.968C1966.115,589.737 1977.116,581.621 1994.79,581.621L2088.929,581.621C2097.946,581.621 2104.438,585.048 2108.406,591.901C2112.373,598.754 2113.275,606.869 2111.111,616.247L1921.751,1359.62C1917.423,1375.851 1906.242,1383.966 1888.207,1383.966L1794.069,1383.966C1785.051,1383.966 1778.559,1380.63 1774.592,1373.957C1770.624,1367.284 1769.722,1359.259 1771.886,1349.881L1961.787,605.968Z" fill="url(#logoGradient)" fill-rule="nonzero"/>
    </g>
</svg>
