<?xml version="1.0" standalone="no"?>
<!DOCTYPE svg PUBLIC "-//W3C//DTD SVG 20010904//EN"
 "http://www.w3.org/TR/2001/REC-SVG-20010904/DTD/svg10.dtd">
<svg version="1.0" xmlns="http://www.w3.org/2000/svg"
 width="200.000000pt" height="200.000000pt" viewBox="0 0 200.000000 200.000000"
 preserveAspectRatio="xMidYMid meet">

<g transform="translate(0.000000,200.000000) scale(0.100000,-0.100000)"
fill="#000000" stroke="none">
<path d="M263 1308 c-13 -14 -34 -70 -53 -143 -17 -66 -34 -128 -36 -137 -5
-17 6 -18 141 -18 l146 0 45 -95 c34 -73 51 -98 74 -110 61 -31 75 -15 144
163 36 92 46 129 41 152 l-7 30 -169 0 -170 0 -30 68 c-33 74 -64 112 -89 112
-9 0 -26 -10 -37 -22z"/>
<path d="M1223 1315 c-22 -15 -137 -290 -149 -356 l-7 -34 44 40 c24 22 85 80
135 128 l92 89 -14 50 c-13 50 -47 98 -69 98 -6 0 -20 -7 -32 -15z"/>
</g>
</svg>
