<svg cache-id="d16450ec354e4fe1b1fc332f519946f8" id="e8MBQZerfbq1" xmlns="http://www.w3.org/2000/svg" xmlns:xlink="http://www.w3.org/1999/xlink" viewBox="0 0 2500 2500" shape-rendering="geometricPrecision" text-rendering="geometricPrecision"><style><![CDATA[#e8MBQZerfbq9_ts {animation: e8MBQZerfbq9_ts__ts 3000ms linear infinite normal forwards}@keyframes e8MBQZerfbq9_ts__ts { 0% {transform: translate(1217.498505px,1647.680359px) scale(1,1)} 59% {transform: translate(1217.498505px,1647.680359px) scale(1,1);animation-timing-function: cubic-bezier(0.735000,0,0.240000,1)} 60.666667% {transform: translate(1217.498505px,1647.680359px) scale(0.800000,1.200000);animation-timing-function: cubic-bezier(0.735000,0,0.240000,1)} 62.333333% {transform: translate(1217.498505px,1647.680359px) scale(1,1);animation-timing-function: cubic-bezier(0.735000,0,0.240000,1)} 64% {transform: translate(1217.498505px,1647.680359px) scale(0.800000,1.200000);animation-timing-function: cubic-bezier(0.735000,0,0.240000,1)} 65.666667% {transform: translate(1217.498505px,1647.680359px) scale(1,1)} 100% {transform: translate(1217.498505px,1647.680359px) scale(1,1)}} #e8MBQZerfbq10_ts {animation: e8MBQZerfbq10_ts__ts 3000ms linear infinite normal forwards}@keyframes e8MBQZerfbq10_ts__ts { 0% {transform: translate(768.703796px,1203.279358px) scale(1,1)} 14.666667% {transform: translate(768.703796px,1203.279358px) scale(1,1)} 16.333333% {transform: translate(768.703796px,1203.279358px) scale(1.503560,0.102938)} 18% {transform: translate(768.703796px,1203.279358px) scale(1,1)} 23.333333% {transform: translate(768.703796px,1203.279358px) scale(1,1);animation-timing-function: cubic-bezier(0.420000,0,0.580000,1)} 25% {transform: translate(768.703796px,1203.279358px) scale(1.503560,0.102938);animation-timing-function: cubic-bezier(0.420000,0,0.580000,1)} 26.666667% {transform: translate(768.703796px,1203.279358px) scale(1,1)} 100% {transform: translate(768.703796px,1203.279358px) scale(1,1)}} #e8MBQZerfbq11_ts {animation: e8MBQZerfbq11_ts__ts 3000ms linear infinite normal forwards}@keyframes e8MBQZerfbq11_ts__ts { 0% {transform: translate(1670.330139px,1203.279358px) scale(1,1)} 14.666667% {transform: translate(1670.330139px,1203.279358px) scale(1,1);animation-timing-function: cubic-bezier(0.420000,0,0.580000,1)} 16.333333% {transform: translate(1670.330139px,1203.279358px) scale(1.503560,0.102938);animation-timing-function: cubic-bezier(0.420000,0,0.580000,1)} 18% {transform: translate(1670.330139px,1203.279358px) scale(1,1)} 23.333333% {transform: translate(1670.330139px,1203.279358px) scale(1,1);animation-timing-function: cubic-bezier(0.420000,0,0.580000,1)} 25% {transform: translate(1670.330139px,1203.279358px) scale(1.503560,0.102938);animation-timing-function: cubic-bezier(0.420000,0,0.580000,1)} 26.666667% {transform: translate(1670.330139px,1203.279358px) scale(1,1)} 100% {transform: translate(1670.330139px,1203.279358px) scale(1,1)}}]]></style><g id="e8MBQZerfbq2" clip-path="url(#e8MBQZerfbq19)"><g id="e8MBQZerfbq3"><g id="e8MBQZerfbq4"><path id="e8MBQZerfbq5" d="M1112.632000,2137.597000Q783.399000,2087.150000,616.128000,1818.984000L589.576000,1933.154000Q398.409000,1688.885000,435.580000,1399.478000L342.652000,1484.441000Q273.619000,1266.723000,316.101000,1120.692000Q124.933000,961.386000,223.172000,725.082000L162.105000,751.633000Q236.448000,422.400000,443.546000,438.330000L403.719000,395.849000Q588.091000,340.676000,768.638000,415.019000Q1014.393000,313.541000,1322.385000,403.814000L1273.320000,327.400000Q1805.614000,317.258000,1885.267000,564.182000Q2134.847000,470.192000,2296.808000,597.637000Q2458.770000,725.082000,2445.494000,881.733000L2368.496000,833.941000Q2464.080000,1168.484000,2134.847000,1314.515000Q2148.123000,1545.509000,2076.435000,1704.815000L2036.608000,1611.886000Q1925.094000,1949.085000,1672.859000,2068.564000L1710.030000,1988.911000Q1391.418000,2137.597000,1112.632000,2137.597000Z" transform="matrix(1 0 0 1 0 -1.80774300000007)" fill="rgb(246,224,189)" stroke="rgb(43,14,15)" stroke-width="30" stroke-linecap="square" stroke-miterlimit="35"/><path id="e8MBQZerfbq6" d="M470.840000,1333.472000Q410.383000,1631.375000,579.487000,1873.202000L609.277000,1755.793000Q782.762000,2072.096000,1133.236000,2115.029000Q1289.196000,2104.514000,1413.615000,2071.219000Q1022.836000,2095.753000,847.599000,1955.563000Q672.363000,1815.374000,609.277000,1589.318000L579.487000,1650.651000Q512.897000,1510.461000,579.487000,1238.844000L500.630000,1252.863000Q451.564000,1151.226000,500.630000,1047.836000Q413.369000,1022.778000,376.212000,991.440000Q271.581000,903.193000,342.652000,641.287000Q337.445000,646.378000,286.737000,616.541000Q269.194000,592.936000,307.765000,507.894000C260.246000,550.776000,224.065000,617.401000,199.118000,707.664000C235.073000,693.033000,260.526000,682.023000,275.424000,674.582000C175.078000,855.899000,197.522000,1001.381000,342.652000,1110.921000Q302.508000,1305.222000,356.832000,1436.650000L470.840000,1333.472000Z" fill="rgb(232,197,159)" stroke="none" stroke-width="1"/><path id="e8MBQZerfbq7" d="M1200.250000,2034.048000Q910.844000,2042.013000,833.846000,1925.189000L881.638000,1919.879000Q799.120000,1853.501000,799.120000,1667.644000Q828.536000,1378.237000,1009.083000,1274.688000L982.532000,1367.617000Q1040.944000,1269.378000,1237.422000,1250.792000Q1441.865000,1258.758000,1524.173000,1335.756000L1457.796000,1367.617000Q1675.514000,1426.029000,1670.204000,1611.886000Q1654.273000,1848.191000,1489.657000,1978.291000L1484.347000,1938.464000Q1343.626000,2026.083000,1200.250000,2034.048000Z" fill="rgb(255,255,215)" stroke="rgb(43,14,15)" stroke-width="35" stroke-linecap="square" stroke-miterlimit="3"/><path id="e8MBQZerfbq8" d="M1200.250000,1802.994000Q1017.473000,1814.099000,971.913000,1622.401000C950.941000,1534.161000,1105.395000,1493.201000,1173.435000,1484.441000L1200.250000,1802.994000Z" fill="rgb(246,224,189)" stroke="none" stroke-width="1"/><g id="e8MBQZerfbq9_ts" transform="translate(1217.498505,1647.680359) scale(1,1)"><path id="e8MBQZerfbq9" d="M1218.836000,1818.985000C1192.285000,1818.985000,1006.858000,1723.466000,1009.083000,1606.576000C1048.840000,1524.121000,1125.908000,1473.821000,1218.836000,1476.476000C1311.765000,1479.131000,1388.185000,1528.212000,1425.934000,1611.886000C1425.198000,1725.984000,1245.387000,1818.985000,1218.836000,1818.985000Z" transform="translate(-1217.498505,-1647.680359)" fill="rgb(45,10,10)" stroke="none" stroke-width="1"/></g><g id="e8MBQZerfbq10_ts" transform="translate(768.703796,1203.279358) scale(1,1)"><path id="e8MBQZerfbq10" d="M749.241000,1288.908000C728.490000,1285.330000,710.991000,1276.747000,693.173000,1265.130000Q644.542000,1166.790000,702.153000,1124.940000C731.776000,1103.421000,848.742000,1119.576000,859.866000,1177.511000Q883.116000,1266.760000,824.819000,1282.654000C793.994000,1291.057000,769.991000,1292.485000,749.241000,1288.908000Z" transform="translate(-768.703796,-1203.279358)" fill="rgb(43,14,15)" stroke="rgb(0,0,0)" stroke-width="1" stroke-linecap="square" stroke-miterlimit="3"/></g><g id="e8MBQZerfbq11_ts" transform="translate(1670.330139,1203.279358) scale(1,1)"><path id="e8MBQZerfbq11" d="M1689.793000,1288.908000C1710.544000,1285.330000,1728.043000,1276.747000,1745.861000,1265.130000Q1794.492000,1166.790000,1736.881000,1124.940000C1707.258000,1103.421000,1590.292000,1119.576000,1579.168000,1177.511000Q1555.918000,1266.760000,1614.215000,1282.654000C1645.040000,1291.057000,1669.043000,1292.485000,1689.793000,1288.908000Z" transform="translate(-1670.330139,-1203.279358)" fill="rgb(43,14,15)" stroke="rgb(0,0,0)" stroke-width="1" stroke-linecap="square" stroke-miterlimit="3"/></g><path id="e8MBQZerfbq12" d="M404.250000,967.227000Q330.651000,879.609000,386.727000,756.943000L334.155000,774.467000Q337.660000,586.963000,474.345000,581.706000L439.298000,564.182000C517.378000,495.944000,579.487000,502.849000,649.582000,529.135000L404.250000,967.227000Z" fill="rgb(232,197,159)" stroke="none" stroke-width="1"/><path id="e8MBQZerfbq13" d="M2121.572000,1149.474000Q2263.513000,1033.817000,2174.143000,886.618000L2226.714000,921.666000Q2207.438000,765.705000,2086.524000,711.381000L2121.572000,693.858000Q2023.439000,665.820000,1946.335000,693.858000L2121.572000,1149.474000Z" fill="rgb(232,197,159)" stroke="none" stroke-width="1"/><path id="e8MBQZerfbq14" d="M982.532000,529.135000Q1213.845000,560.678000,1385.577000,704.372000Q1226.111000,506.354000,982.532000,529.135000Z" fill="rgb(232,197,159)" stroke="none" stroke-width="1"/><path id="e8MBQZerfbq15" d="M1227.863000,774.467000Q1445.157000,855.076000,1508.242000,967.227000Q1457.424000,799,1227.863000,774.467000Z" fill="rgb(232,197,159)" stroke="none" stroke-width="1"/><path id="e8MBQZerfbq16" d="M1930.459000,1317.701000C1967.159000,1546.898000,1904.710000,1722.116000,1742.955000,1843.199000Q1916.599000,1564.234000,1930.459000,1317.701000Z" fill="rgb(232,197,159)" stroke="none" stroke-width="1"/><path id="e8MBQZerfbq17" d="M1930.459000,967.227000Q2074.327000,1081.534000,1995.296000,1277.396000Q2019.459000,1078.359000,1930.459000,967.227000Z" fill="rgb(232,197,159)" stroke="none" stroke-width="1"/><path id="e8MBQZerfbq18" d="M1425.934000,395.849000Q1857.101000,483.528000,1823.564000,751.633000Q1707.056000,506.010000,1425.934000,395.849000Z" fill="rgb(232,197,159)" stroke="none" stroke-width="1"/></g></g><clipPath id="e8MBQZerfbq19"><rect id="e8MBQZerfbq20" width="2500" height="2500" rx="0" ry="0" fill="rgb(0,0,0)" stroke="none" stroke-width="1"/></clipPath></g></svg>