<?xml version="1.0" encoding="UTF-8" standalone="no"?><!-- Generator: Gravit.io -->
<svg xmlns="http://www.w3.org/2000/svg" xmlns:xlink="http://www.w3.org/1999/xlink" style="isolation:isolate" viewBox="0 0 2500 2500" width="2500pt" height="2500pt">
<defs><clipPath id="_clipPath_2fINDUW0lVLwjbqkkZTktE7z8Lz0qGen"><rect width="2500" height="2500"/>
</clipPath></defs><g clip-path="url(#_clipPath_2fINDUW0lVLwjbqkkZTktE7z8Lz0qGen)">
<g><path d=" M 1112.632 2137.597 Q 783.399 2087.15 616.128 1818.984 L 589.576 1933.154 Q 398.409 1688.885 435.58 1399.478 L 342.652 1484.441 Q 273.619 1266.723 316.101 1120.692 Q 124.933 961.386 223.172 725.082 L 162.105 751.633 Q 236.448 422.4 443.546 438.33 L 403.719 395.849 Q 588.091 340.676 768.638 415.019 Q 1014.393 313.541 1322.385 403.814 L 1273.32 327.4 Q 1805.614 317.258 1885.267 564.182 Q 2134.847 470.192 2296.808 597.637 Q 2458.77 725.082 2445.494 881.733 L 2368.496 833.941 Q 2464.08 1168.484 2134.847 1314.515 Q 2148.123 1545.509 2076.435 1704.815 L 2036.608 1611.886 Q 1925.094 1949.085 1672.859 2068.564 L 1710.03 1988.911 Q 1391.418 2137.597 1112.632 2137.597 Z " fill="rgb(246,224,189)" vector-effect="non-scaling-stroke" stroke-width="5" stroke="rgb(43,14,15)" stroke-linejoin="miter" stroke-linecap="square" stroke-miterlimit="3"/>
<path d=" M 1200.25 2034.048 Q 910.844 2042.013 833.846 1925.189 L 881.638 1919.879 Q 799.12 1853.501 799.12 1667.644 Q 828.536 1378.237 1009.083 1274.688 L 982.532 1367.617 Q 1040.944 1269.378 1237.422 1250.792 Q 1441.865 1258.758 1524.173 1335.756 L 1457.796 1367.617 Q 1675.514 1426.029 1670.204 1611.886 Q 1654.273 1848.191 1489.657 1978.291 L 1484.347 1938.464 Q 1343.626 2026.083 1200.25 2034.048 Z " fill="rgb(255,255,215)" vector-effect="non-scaling-stroke" stroke-width="5" stroke="rgb(43,14,15)" stroke-linejoin="miter" stroke-linecap="square" stroke-miterlimit="3"/><path d=" M 1200.25 1802.994 Q 1017.473 1814.099 971.913 1622.401 C 950.941 1534.161 1105.395 1493.201 1173.435 1484.441 L 1200.25 1802.994 Z " fill="rgb(246,224,189)"/><path d=" M 1218.836 1818.985 C 1192.285 1818.985 1006.858 1723.466 1009.083 1606.576 C 1048.84 1524.121 1125.908 1473.821 1218.836 1476.476 C 1311.765 1479.131 1388.185 1528.212 1425.934 1611.886 C 1425.198 1725.984 1245.387 1818.985 1218.836 1818.985 Z " fill="rgb(45,10,10)"/>

<!--Ojito izquierdo--><path  d=" M 749.241 1288.908 C 728.49 1285.33 710.991 1276.747 693.173 1265.13 Q 644.542 1166.79 702.153 1124.94 C 731.776 1103.421 848.742 1119.576 859.866 1177.511 Q 883.116 1266.76 824.819 1282.654 C 793.994 1291.057 769.991 1292.485 749.241 1288.908 Z " fill="rgb(43,14,15)" vector-effect="non-scaling-stroke" stroke-width="1" stroke="rgb(0,0,0)" stroke-linejoin="miter" stroke-linecap="square" stroke-miterlimit="3"/>
<!--Ojito derecho--><path d=" M 1689.793 1288.908 C 1710.544 1285.33 1728.043 1276.747 1745.861 1265.13 Q 1794.492 1166.79 1736.881 1124.94 C 1707.258 1103.421 1590.292 1119.576 1579.168 1177.511 Q 1555.918 1266.76 1614.215 1282.654 C 1645.04 1291.057 1669.043 1292.485 1689.793 1288.908 Z " fill="rgb(43,14,15)" vector-effect="non-scaling-stroke" stroke-width="1" stroke="rgb(0,0,0)" stroke-linejoin="miter" stroke-linecap="square" stroke-miterlimit="3"/>


<path d=" M 404.25 967.227 Q 330.651 879.609 386.727 756.943 L 334.155 774.467 Q 337.66 586.963 474.345 581.706 L 439.298 564.182 C 517.378 495.944 579.487 502.849 649.582 529.135 L 404.25 967.227 Z " fill="rgb(232,197,159)"/><path d=" M 2121.572 1149.474 Q 2263.513 1033.817 2174.143 886.618 L 2226.714 921.666 Q 2207.438 765.705 2086.524 711.381 L 2121.572 693.858 Q 2023.439 665.82 1946.335 693.858 L 2121.572 1149.474 Z " fill="rgb(232,197,159)"/><path d=" M 982.532 529.135 Q 1213.845 560.678 1385.577 704.372 Q 1226.111 506.354 982.532 529.135 Z " fill="rgb(232,197,159)"/><path d=" M 1227.863 774.467 Q 1445.157 855.076 1508.242 967.227 Q 1457.424 799 1227.863 774.467 Z " fill="rgb(232,197,159)"/><path d=" M 470.84 1333.472 Q 410.383 1631.375 579.487 1873.202 L 609.277 1755.793 Q 782.762 2072.096 1133.236 2115.029 Q 1289.196 2104.514 1413.615 2071.219 Q 1022.836 2095.753 847.599 1955.563 Q 672.363 1815.374 609.277 1589.318 L 579.487 1650.651 Q 512.897 1510.461 579.487 1238.844 L 500.63 1252.863 Q 451.564 1151.226 500.63 1047.836 Q 413.369 1022.778 376.212 991.44 Q 271.581 903.193 342.652 641.287 Q 337.445 646.378 286.737 616.541 Q 269.194 592.936 307.765 507.894 C 260.246 550.776 224.065 617.401 199.118 707.664 C 235.073 693.033 260.526 682.023 275.424 674.582 C 175.078 855.899 197.522 1001.381 342.652 1110.921 Q 302.508 1305.222 356.832 1436.65 L 470.84 1333.472 Z " fill="rgb(232,197,159)"/><path d=" M 1930.459 1317.701 C 1967.159 1546.898 1904.71 1722.116 1742.955 1843.199 Q 1916.599 1564.234 1930.459 1317.701 Z " fill="rgb(232,197,159)"/><path d=" M 1930.459 967.227 Q 2074.327 1081.534 1995.296 1277.396 Q 2019.459 1078.359 1930.459 967.227 Z " fill="rgb(232,197,159)"/><path d=" M 1425.934 395.849 Q 1857.101 483.528 1823.564 751.633 Q 1707.056 506.01 1425.934 395.849 Z " fill="rgb(232,197,159)"/></g></g></svg>