<svg id="e7NGsgSBthA1" xmlns="http://www.w3.org/2000/svg" xmlns:xlink="http://www.w3.org/1999/xlink" viewBox="0 0 2500 2500" shape-rendering="geometricPrecision" text-rendering="geometricPrecision"><style><![CDATA[#e7NGsgSBthA6_ts {animation: e7NGsgSBthA6_ts__ts 3000ms linear infinite normal forwards}@keyframes e7NGsgSBthA6_ts__ts { 0% {transform: translate(812.717133px,1002.630157px) scale(1,1)} 14.666667% {transform: translate(812.717133px,1002.630157px) scale(1,1);animation-timing-function: cubic-bezier(0.420000,0,0.580000,1)} 16.666667% {transform: translate(812.717133px,1002.630157px) scale(1.379955,0.142383);animation-timing-function: cubic-bezier(0.420000,0,0.580000,1)} 18.666667% {transform: translate(812.717133px,1002.630157px) scale(1,1);animation-timing-function: cubic-bezier(0.420000,0,0.580000,1)} 23.333333% {transform: translate(812.717133px,1002.630157px) scale(1,1);animation-timing-function: cubic-bezier(0.420000,0,0.580000,1)} 25.333333% {transform: translate(812.717133px,1002.630157px) scale(1.311402,0.142383);animation-timing-function: cubic-bezier(0.420000,0,0.580000,1)} 27.333333% {transform: translate(812.717133px,1002.630157px) scale(1,1)} 100% {transform: translate(812.717133px,1002.630157px) scale(1,1)}} #e7NGsgSBthA7_ts {animation: e7NGsgSBthA7_ts__ts 3000ms linear infinite normal forwards}@keyframes e7NGsgSBthA7_ts__ts { 0% {transform: translate(1680.749634px,1002.630157px) scale(1,1)} 14.666667% {transform: translate(1680.749634px,1002.630157px) scale(1,1);animation-timing-function: cubic-bezier(0.420000,0,0.580000,1)} 16.666667% {transform: translate(1680.749634px,1002.630157px) scale(1.408017,0.142383);animation-timing-function: cubic-bezier(0.420000,0,0.580000,1)} 18.666667% {transform: translate(1680.749634px,1002.630157px) scale(1,1);animation-timing-function: cubic-bezier(0.420000,0,0.580000,1)} 23.333333% {transform: translate(1680.749634px,1002.630157px) scale(1,1);animation-timing-function: cubic-bezier(0.420000,0,0.580000,1)} 25.333333% {transform: translate(1680.749634px,1002.630157px) scale(1.311402,0.142383);animation-timing-function: cubic-bezier(0.420000,0,0.580000,1)} 27.333333% {transform: translate(1680.749634px,1002.630157px) scale(1,1)} 100% {transform: translate(1680.749634px,1002.630157px) scale(1,1)}} #e7NGsgSBthA18_ts {animation: e7NGsgSBthA18_ts__ts 3000ms linear infinite normal forwards}@keyframes e7NGsgSBthA18_ts__ts { 0% {transform: translate(1244.790405px,1430.473206px) scale(1,1)} 58.333333% {transform: translate(1244.790405px,1430.473206px) scale(1,1);animation-timing-function: cubic-bezier(0.775000,0,0.250000,1)} 60.333333% {transform: translate(1244.790405px,1430.473206px) scale(0.800000,1.200000);animation-timing-function: cubic-bezier(0.775000,0,0.250000,1)} 62.333333% {transform: translate(1244.790405px,1430.473206px) scale(1,1);animation-timing-function: cubic-bezier(0.775000,0,0.250000,1)} 64.333333% {transform: translate(1244.790405px,1430.473206px) scale(0.800000,1.200000);animation-timing-function: cubic-bezier(0.775000,0,0.250000,1)} 66.666667% {transform: translate(1244.790405px,1430.473206px) scale(1,1)} 100% {transform: translate(1244.790405px,1430.473206px) scale(1,1)}}]]></style><g id="e7NGsgSBthA2" clip-path="url(#e7NGsgSBthA19)"><g id="e7NGsgSBthA3"><g id="e7NGsgSBthA4"><path id="e7NGsgSBthA5" d="M1143.831000,1902.136000Q826.865000,1853.569000,665.826000,1595.394000L640.264000,1705.310000Q456.219000,1470.142000,492.005000,1191.518000L402.539000,1273.316000Q336.079000,1063.710000,376.977000,923.120000Q192.933000,769.749000,287.511000,542.250000L228.719000,567.811000Q300.292000,250.845000,499.674000,266.182000L461.331000,225.284000Q638.834000,172.166000,812.654000,243.739000Q1049.252000,146.042000,1345.769000,232.952000L1298.532000,159.385000Q1810.993000,149.621000,1887.678000,387.345000Q2127.959000,296.856000,2283.886000,419.553000Q2439.813000,542.250000,2427.032000,693.064000L2352.903000,647.053000Q2444.925000,969.131000,2127.959000,1109.721000Q2140.740000,1332.108000,2071.723000,1485.479000L2033.380000,1396.013000Q1926.021000,1720.647000,1683.184000,1835.675000L1718.971000,1758.990000Q1412.229000,1902.136000,1143.831000,1902.136000Z" fill="rgb(246,224,189)" stroke="rgb(43,14,15)" stroke-width="30" stroke-linecap="square" stroke-miterlimit="3"/><g id="e7NGsgSBthA6_ts" transform="translate(812.717133,1002.630157) scale(1,1)"><path id="e7NGsgSBthA6" d="M795.500230,1085.068000C775.116035,1081.624000,757.926501,1073.361000,740.423724,1062.176000Q692.653816,967.500000,749.245515,927.210000C778.344366,906.493000,893.241922,922.045000,904.169679,977.822000Q927.007772,1063.745000,869.741634,1079.047000C839.462258,1087.137000,815.884424,1088.512000,795.500230,1085.068000Z" transform="translate(-812.717133,-1002.630157)" fill="rgb(43,14,15)" stroke="rgb(0,0,0)" stroke-width="1" stroke-linecap="square" stroke-miterlimit="3"/></g><g id="e7NGsgSBthA7_ts" transform="translate(1680.749634,1002.630157) scale(1,1)"><path id="e7NGsgSBthA7" d="M1699.488000,1085.068000C1719.465000,1081.624000,1736.312000,1073.361000,1753.467000,1062.176000Q1800.285000,967.500000,1744.821000,927.210000C1716.301000,906.493000,1603.694000,922.045000,1592.984000,977.822000Q1570.600000,1063.745000,1626.726000,1079.047000C1656.402000,1087.137000,1679.510000,1088.512000,1699.488000,1085.068000Z" transform="translate(-1680.749634,-1002.630157)" fill="rgb(43,14,15)" stroke="rgb(0,0,0)" stroke-width="1" stroke-linecap="square" stroke-miterlimit="3"/></g><path id="e7NGsgSBthA8" d="M461.843000,775.373000Q390.985000,691.019000,444.972000,572.924000L394.360000,589.794000Q397.734000,409.277000,529.326000,404.216000L495.584000,387.345000C570.755000,321.650000,630.550000,328.297000,698.033000,353.604000L461.843000,775.373000Z" fill="rgb(232,197,159)" stroke="none" stroke-width="1"/><path id="e7NGsgSBthA9" d="M2115.178000,950.829000Q2251.831000,839.482000,2165.790000,697.767000L2216.403000,731.509000Q2197.845000,581.359000,2081.437000,529.060000L2115.178000,512.189000Q2020.702000,485.196000,1946.470000,512.189000L2115.178000,950.829000Z" fill="rgb(232,197,159)" stroke="none" stroke-width="1"/><path id="e7NGsgSBthA10" d="M1018.578000,353.604000Q1241.272000,383.971000,1406.606000,522.311000Q1253.082000,331.672000,1018.578000,353.604000Z" fill="rgb(232,197,159)" stroke="none" stroke-width="1"/><path id="e7NGsgSBthA11" d="M1254.769000,589.794000Q1463.966000,667.400000,1524.701000,775.373000Q1475.776000,613.413000,1254.769000,589.794000Z" fill="rgb(232,197,159)" stroke="none" stroke-width="1"/><path id="e7NGsgSBthA12" d="M533,1116.697000Q467.393000,1403.500000,630.196000,1636.316000L658.877000,1523.282000Q825.897000,1827.800000,1163.313000,1869.133000Q1313.463000,1859.011000,1433.245000,1826.956000Q1057.027000,1850.575000,888.319000,1715.609000Q719.612000,1580.643000,658.877000,1363.010000L630.196000,1422.058000Q566.087000,1287.091000,630.196000,1025.594000L554.278000,1039.091000Q507.040000,941.241000,554.278000,841.703000Q470.268000,817.578000,434.495000,787.408000Q333.763000,702.450000,402.185000,450.301000Q397.173000,455.203000,364,426.478000Q347.111000,403.752000,394.360000,312C348.611000,353.284000,299.017000,431.100000,275,518C309.615000,503.914000,334.011000,484.702000,348.354000,477.538000C251.747000,652.100000,276.115000,794.541000,415.837000,900Q363.538000,1089.499000,415.837000,1216.030000L533,1116.697000Z" fill="rgb(232,197,159)" stroke="none" stroke-width="1"/><path id="e7NGsgSBthA13" d="M1931.186000,1112.788000C1966.519000,1333.445000,1906.397000,1502.136000,1750.669000,1618.707000Q1917.842000,1350.136000,1931.186000,1112.788000Z" fill="rgb(232,197,159)" stroke="none" stroke-width="1"/><path id="e7NGsgSBthA14" d="M1931.186000,775.373000Q2069.694000,885.421000,1993.608000,1073.986000Q2016.870000,882.364000,1931.186000,775.373000Z" fill="rgb(232,197,159)" stroke="none" stroke-width="1"/><path id="e7NGsgSBthA15" d="M1445.460000,225.284000Q1860.561000,309.696000,1828.274000,567.811000Q1716.107000,331.340000,1445.460000,225.284000Z" fill="rgb(232,197,159)" stroke="none" stroke-width="1"/><path id="e7NGsgSBthA16" d="M1225.640000,1802.214000Q946.972000,1808.019000,873.597000,1695.054000L919.641000,1690.250000Q840.627000,1625.815000,841.824000,1446.887000Q872,1172,1026.273000,1080.896000C1032.842000,1076.568000,1039.581000,1072.454000,1046.490000,1068.553000L1018.578000,1156Q1042.920000,1143.967000,1054,1132.041000C1101.205000,1081.231000,1194.250000,1039.750000,1274.548000,1041.080000Q1463.240000,1057.383000,1541.984000,1132.041000L1477.876000,1162.287000Q1687.101000,1219.923000,1680.792000,1398.818000Q1663.934000,1626.210000,1504.616000,1750.400000L1499.761000,1712.024000Q1363.722000,1795.469000,1225.640000,1802.214000Z" fill="rgb(255,255,215)" stroke="rgb(43,14,15)" stroke-width="30" stroke-linecap="square" stroke-miterlimit="3"/><path id="e7NGsgSBthA17" d="M1228.184000,1580Q1052.217000,1590.691000,1008.355000,1406.135000C988.165000,1321.183000,1136.864000,1281.749000,1202.369000,1273.316000L1228.184000,1580Z" fill="rgb(246,224,189)" stroke="none" stroke-width="1"/><g id="e7NGsgSBthA18_ts" transform="translate(1244.790405,1430.473206) scale(1,1)"><path id="e7NGsgSBthA18" d="M1246.078000,1595.395000C1220.516000,1595.395000,1041.998000,1503.435000,1044.140000,1390.900000C1082.416000,1311.517000,1156.612000,1263.091000,1246.078000,1265.648000C1335.544000,1268.204000,1409.117000,1315.456000,1445.460000,1396.013000C1444.751000,1505.859000,1271.640000,1595.395000,1246.078000,1595.395000Z" transform="translate(-1244.790405,-1430.473206)" fill="rgb(45,10,10)" stroke="none" stroke-width="1"/></g></g></g><clipPath id="e7NGsgSBthA19"><rect id="e7NGsgSBthA20" width="2500" height="2500" rx="0" ry="0" fill="rgb(0,0,0)" stroke="none" stroke-width="1"/></clipPath></g></svg>